<?xml version="1.0" standalone="no"?>
<!DOCTYPE svg PUBLIC "-//W3C//DTD SVG 20010904//EN"
 "http://www.w3.org/TR/2001/REC-SVG-20010904/DTD/svg10.dtd">
<svg version="1.0" xmlns="http://www.w3.org/2000/svg"
 width="512.000000pt" height="512.000000pt" viewBox="0 0 512.000000 512.000000"
 preserveAspectRatio="xMidYMid meet">

<g transform="translate(0.000000,512.000000) scale(0.100000,-0.100000)"
fill="#FFFFFF" stroke="none">
<path d="M2380 5090 c-283 -25 -557 -77 -1005 -190 -312 -79 -1324 -365 -1337
-378 -9 -10 -10 -117 -9 -2434 l1 -2038 285 0 285 0 0 2093 0 2093 307 67
c1589 346 1976 344 3336 -20 l287 -77 0 -2068 0 -2068 275 0 275 0 0 1990 c0
1585 3 1990 13 1991 14 0 -45 29 -493 236 -1010 468 -1431 606 -1891 620 -536
17 -970 -109 -2433 -709 -120 -49 -225 -87 -233 -84 -8 3 -13 13 -11 23 3 18
83 52 663 285 1088 437 1510 549 2005 535 483 -14 907 -153 1970 -647 168 -78
329 -153 358 -166 l52 -24 0 205 c0 182 -2 205 -16 205 -9 0 -150 42 -313 94
-911 291 -1309 395 -1695 447 -175 23 -517 32 -676 19z"/>
</g>
</svg>
