<?xml version="1.0" ?><svg id="Icons" style="enable-background:new 0 0 32 32;" version="1.1" viewBox="0 0 32 32" xml:space="preserve" xmlns="http://www.w3.org/2000/svg" xmlns:xlink="http://www.w3.org/1999/xlink"><g><path d="M11,16c0,2.8,2.2,5,5,5s5-2.2,5-5s-2.2-5-5-5S11,13.2,11,16z"/><path d="M12.2,10.9c0.1,0,0.2,0,0.2,0c0.5,0,0.9-0.3,1-0.8c0.3-1.3,0.9-2.4,1.9-3.3C17.1,5,19.6,4.4,22.1,5   c0.5,0.1,1.1-0.2,1.2-0.7c0.1-0.5-0.2-1.1-0.7-1.2c-3.1-0.8-6.4,0.1-8.7,2.3c-1.2,1.2-2,2.7-2.4,4.3C11.4,10.2,11.7,10.8,12.2,10.9   z"/><path d="M9.2,15.2c0.2,0,0.4,0,0.5-0.2c0.5-0.3,0.6-0.9,0.3-1.4c-0.7-1.1-1-2.4-1-3.7c0-2.5,1.3-4.8,3.5-6.1   C13,3.7,13.1,3,12.9,2.6c-0.3-0.5-0.9-0.6-1.4-0.4C8.7,3.8,7,6.8,7,10c0,1.7,0.5,3.3,1.3,4.7C8.5,15,8.9,15.2,9.2,15.2z"/><path d="M9.7,20.5c0.1,0,0.2,0,0.2,0c0.5,0,0.9-0.3,1-0.8c0.1-0.5-0.2-1.1-0.7-1.2c-1.3-0.3-2.4-0.9-3.3-1.9C5,14.9,4.4,12.4,5,9.9   c0.1-0.5-0.2-1.1-0.7-1.2C3.7,8.6,3.2,8.9,3.1,9.4c-0.8,3.1,0.1,6.4,2.3,8.7C6.6,19.3,8.1,20.1,9.7,20.5z"/><path d="M14.7,23.7c0.5-0.3,0.6-0.9,0.3-1.4c-0.3-0.5-0.9-0.6-1.4-0.3c-1.1,0.7-2.4,1-3.7,1c-2.5,0-4.8-1.3-6.1-3.5   C3.7,19,3,18.9,2.6,19.1c-0.5,0.3-0.6,0.9-0.4,1.4C3.8,23.3,6.8,25,10,25C11.7,25,13.3,24.5,14.7,23.7z"/><path d="M19.8,21.1c-0.5-0.1-1.1,0.2-1.2,0.7c-0.3,1.3-0.9,2.4-1.9,3.3c-1.8,1.8-4.4,2.5-6.8,1.8c-0.5-0.1-1.1,0.2-1.2,0.7   s0.2,1.1,0.7,1.2c0.8,0.2,1.5,0.3,2.3,0.3c2.4,0,4.7-0.9,6.4-2.6c1.2-1.2,2-2.7,2.4-4.3C20.6,21.8,20.3,21.2,19.8,21.1z"/><path d="M22.3,16.9c-0.5,0.3-0.6,0.9-0.3,1.4c0.7,1.1,1,2.4,1,3.7c0,2.5-1.3,4.8-3.5,6.1c-0.5,0.3-0.6,0.9-0.4,1.4   c0.2,0.3,0.5,0.5,0.9,0.5c0.2,0,0.3,0,0.5-0.1c2.8-1.6,4.5-4.6,4.5-7.8c0-1.7-0.5-3.3-1.3-4.7C23.4,16.8,22.7,16.6,22.3,16.9z"/><path d="M22.3,11.5c-0.5-0.1-1.1,0.2-1.2,0.7c-0.1,0.5,0.2,1.1,0.7,1.2c1.3,0.3,2.4,0.9,3.3,1.9c1.8,1.8,2.5,4.4,1.8,6.8   c-0.1,0.5,0.2,1.1,0.7,1.2c0.1,0,0.2,0,0.3,0c0.4,0,0.8-0.3,1-0.7c0.8-3.1-0.1-6.4-2.3-8.7C25.4,12.7,23.9,11.9,22.3,11.5z"/><path d="M29.8,11.5C28.2,8.7,25.2,7,22,7c-1.7,0-3.3,0.5-4.7,1.3c-0.5,0.3-0.6,0.9-0.3,1.4c0.3,0.5,0.9,0.6,1.4,0.3   c1.1-0.7,2.4-1,3.7-1c2.5,0,4.8,1.3,6.1,3.5c0.2,0.3,0.5,0.5,0.9,0.5c0.2,0,0.3,0,0.5-0.1C29.9,12.6,30.1,12,29.8,11.5z"/></g></svg>