<?xml version="1.0" standalone="no"?>
<!DOCTYPE svg PUBLIC "-//W3C//DTD SVG 20010904//EN"
 "http://www.w3.org/TR/2001/REC-SVG-20010904/DTD/svg10.dtd">
<svg version="1.0" xmlns="http://www.w3.org/2000/svg"
 width="512.000000pt" height="512.000000pt" viewBox="0 0 512.000000 512.000000"
 preserveAspectRatio="xMidYMid meet">

<g transform="translate(0.000000,512.000000) scale(0.100000,-0.100000)"
fill="#FFFFFF" stroke="none">
<path d="M2321 5110 c-497 -48 -990 -251 -1376 -565 -114 -92 -294 -274 -384
-387 -229 -287 -417 -675 -495 -1023 -49 -218 -60 -325 -60 -575 0 -250 11
-357 60 -575 79 -355 272 -749 509 -1040 92 -114 274 -294 387 -384 287 -229
675 -417 1023 -495 218 -49 325 -60 575 -60 250 0 357 11 575 60 261 58 603
204 828 353 389 259 688 599 893 1016 125 255 196 484 241 775 24 161 24 539
0 700 -45 291 -116 520 -241 775 -134 272 -283 480 -498 692 -211 209 -404
346 -673 478 -252 124 -486 197 -765 240 -126 19 -468 27 -599 15z m474 -430
c96 -11 284 -46 323 -61 23 -9 22 -10 -26 -57 -73 -71 -96 -122 -97 -207 0
-59 5 -78 30 -124 70 -126 236 -215 456 -243 170 -21 347 10 499 87 l55 28 79
-84 c190 -203 361 -479 450 -728 26 -72 26 -75 12 -145 -63 -310 -73 -770 -25
-1221 l12 -110 -48 -108 c-58 -132 -159 -304 -255 -433 -92 -124 -289 -321
-411 -411 -84 -63 -222 -153 -234 -153 -2 0 4 19 14 43 60 140 87 410 60 602
-9 69 -8 78 7 89 19 14 10 41 -10 33 -8 -3 -21 20 -36 66 -32 101 -52 138
-101 181 -37 35 -46 38 -83 33 -33 -4 -50 -15 -83 -52 -174 -191 -175 -852 -2
-1049 l41 -46 -54 -24 c-142 -63 -386 -125 -573 -146 -116 -13 -354 -13 -470
0 -482 54 -924 268 -1270 615 -267 266 -450 579 -553 943 -11 40 -17 70 -12
67 5 -3 16 -29 24 -58 20 -66 51 -118 77 -124 10 -3 19 -9 19 -13 0 -5 12 -22
26 -39 33 -40 65 -40 98 -1 145 173 137 1259 -9 1388 -32 27 -56 28 -79 3 -9
-10 -30 -21 -45 -24 -44 -9 -84 -76 -99 -166 -7 -40 -19 -83 -27 -94 -20 -28
-19 -12 5 96 121 549 484 1050 980 1353 251 153 562 260 850 293 107 12 379
13 485 1z m535 -130 c8 -5 11 -10 5 -10 -5 0 -17 5 -25 10 -8 5 -10 10 -5 10
6 0 17 -5 25 -10z m120 -50 c8 -5 11 -10 5 -10 -5 0 -17 5 -25 10 -8 5 -10 10
-5 10 6 0 17 -5 25 -10z m290 -166 c0 -2 -9 0 -20 6 -11 6 -20 13 -20 16 0 2
9 0 20 -6 11 -6 20 -13 20 -16z m31 -21 c13 -16 12 -17 -3 -4 -17 13 -22 21
-14 21 2 0 10 -8 17 -17z m159 -123 c25 -25 30 -31 11 -14 -20 17 -62 50 -93
74 -32 23 -58 44 -58 47 0 9 95 -64 140 -107z m-3196 -1106 c66 -262 74 -759
16 -1056 -19 -100 -46 -171 -65 -171 -5 0 -15 10 -22 23 -9 19 -8 30 9 61 42
82 78 356 78 602 0 229 -31 487 -69 573 -14 30 -16 46 -8 59 9 18 11 18 27 -3
10 -11 25 -51 34 -88z m2786 -1400 c40 -34 64 -83 90 -180 37 -146 50 -343 30
-484 l-7 -55 -2 55 c-6 202 -57 350 -121 350 -54 0 -92 -86 -112 -250 -8 -63
-17 -99 -27 -107 -14 -12 -15 -14 0 -25 10 -9 19 -46 27 -116 6 -56 20 -127
30 -157 l19 -56 -24 22 c-78 74 -131 319 -120 559 9 203 52 363 116 431 45 46
59 48 101 13z"/>
<path d="M1880 3935 c-9 -11 -33 -15 -85 -15 -48 0 -76 -4 -84 -13 -8 -10 -31
-13 -88 -9 -152 8 -306 -49 -409 -152 -70 -71 -101 -130 -117 -221 -8 -49 -8
-79 1 -122 8 -41 9 -59 1 -64 -18 -11 35 -91 104 -160 43 -43 87 -73 152 -105
200 -99 420 -99 622 1 231 114 345 331 287 550 -22 86 -56 140 -145 228 -75
73 -81 77 -113 72 -22 -5 -44 -1 -64 9 -38 20 -46 20 -62 1z"/>
<path d="M3684 3161 c-130 -79 -138 -400 -14 -505 127 -106 261 124 206 355
-17 72 -43 118 -86 146 -40 28 -65 29 -106 4z"/>
<path d="M2413 3159 c-27 -7 -47 -19 -58 -35 -15 -24 -15 -27 0 -44 25 -27
117 -43 211 -37 120 7 179 43 140 86 -33 37 -190 53 -293 30z"/>
<path d="M4031 2396 c-87 -48 -50 -186 49 -186 51 0 100 49 100 99 0 75 -83
124 -149 87z m83 -52 c31 -30 9 -84 -34 -84 -24 0 -50 26 -50 50 0 24 26 50
50 50 10 0 26 -7 34 -16z"/>
<path d="M1096 2210 c-32 -38 -41 -82 -41 -190 0 -135 43 -215 105 -195 56 18
89 205 56 318 -28 97 -73 122 -120 67z"/>
<path d="M2095 1981 c-108 -49 -195 -241 -195 -431 0 -237 125 -450 265 -450
154 0 278 234 262 494 -10 179 -85 332 -187 384 -53 27 -92 28 -145 3z"/>
<path d="M3394 1619 c-10 -17 13 -36 27 -22 12 12 4 33 -11 33 -5 0 -12 -5
-16 -11z"/>
</g>
</svg>
