<?xml version="1.0" standalone="no"?>
<!DOCTYPE svg PUBLIC "-//W3C//DTD SVG 20010904//EN"
 "http://www.w3.org/TR/2001/REC-SVG-20010904/DTD/svg10.dtd">
<svg version="1.0" xmlns="http://www.w3.org/2000/svg"
 width="512.000000pt" height="512.000000pt" viewBox="0 0 512.000000 512.000000"
 preserveAspectRatio="xMidYMid meet">

<g transform="translate(0.000000,512.000000) scale(0.100000,-0.100000)"
fill="#FFFFFF" stroke="none">
<path d="M2375 5114 c-222 -22 -399 -55 -559 -105 l-99 -31 -67 67 -67 67 -74
-32 c-209 -88 -463 -241 -636 -382 -319 -259 -555 -550 -738 -910 l-80 -156
64 -59 63 -58 -46 -135 c-96 -285 -130 -497 -130 -820 0 -313 33 -530 122
-796 l38 -113 -68 -75 c-37 -41 -68 -80 -68 -88 0 -29 183 -380 257 -493 259
-392 632 -731 1030 -933 l121 -62 97 0 97 0 62 65 61 65 65 -20 c90 -30 254
-66 390 -87 161 -24 539 -24 700 1 152 23 273 50 394 87 l100 31 64 -71 64
-71 95 0 c94 0 97 1 187 46 551 280 1013 760 1261 1311 l44 97 -62 69 c-34 38
-72 81 -83 96 l-22 26 39 116 c90 269 123 485 123 799 0 295 -31 513 -107 752
l-24 76 69 69 c69 67 69 69 65 113 -2 31 -27 92 -74 187 -282 560 -697 978
-1247 1254 l-159 80 -73 -72 -72 -72 -125 42 c-141 46 -291 82 -447 106 -100
15 -459 28 -545 19z m545 -129 c362 -56 706 -187 995 -380 370 -247 640 -554
835 -950 117 -237 187 -460 227 -725 24 -160 24 -511 0 -670 -81 -530 -313
-995 -682 -1365 -813 -818 -2104 -949 -3060 -310 -369 246 -640 554 -835 950
-117 238 -185 456 -227 725 -25 162 -24 510 1 675 110 715 508 1324 1121 1710
274 173 653 307 977 344 51 6 109 13 128 15 75 9 420 -4 520 -19z m-1350 -65
c-8 -5 -19 -10 -25 -10 -5 0 -3 5 5 10 8 5 20 10 25 10 6 0 3 -5 -5 -10z
m2000 0 c8 -5 11 -10 5 -10 -5 0 -17 5 -25 10 -8 5 -10 10 -5 10 6 0 17 -5 25
-10z m-2081 -34 c-10 -9 -169 -86 -169 -81 0 6 151 84 164 85 5 0 7 -2 5 -4z
m2231 -36 c44 -22 80 -42 80 -45 0 -5 -159 72 -169 81 -13 12 19 -1 89 -36z
m-2430 -65 c0 -2 -10 -9 -22 -15 -22 -11 -22 -10 -4 4 21 17 26 19 26 11z
m2580 -21 c0 -2 -9 0 -20 6 -11 6 -20 13 -20 16 0 2 9 0 20 -6 11 -6 20 -13
20 -16z m-2630 -9 c0 -2 -10 -9 -22 -15 -22 -11 -22 -10 -4 4 21 17 26 19 26
11z m2680 -21 c0 -2 -9 0 -20 6 -11 6 -20 13 -20 16 0 2 9 0 20 -6 11 -6 20
-13 20 -16z m-2820 -68 c0 -3 -15 -14 -32 -26 l-33 -22 30 26 c31 27 35 29 35
22z m2980 -42 c0 -3 -13 4 -30 16 -16 12 -30 24 -30 26 0 3 14 -4 30 -16 17
-12 30 -24 30 -26z m-3050 -8 c0 -2 -8 -10 -17 -17 -16 -13 -17 -12 -4 4 13
16 21 21 21 13z m3081 -13 c13 -16 12 -17 -3 -4 -17 13 -22 21 -14 21 2 0 10
-8 17 -17z m-3121 -16 c0 -2 -10 -12 -22 -23 l-23 -19 19 23 c18 21 26 27 26
19z m3165 -17 c10 -11 16 -20 13 -20 -3 0 -13 9 -23 20 -10 11 -16 20 -13 20
3 0 13 -9 23 -20z m-3215 -23 c0 -2 -12 -14 -27 -28 l-28 -24 24 28 c23 25 31
32 31 24z m3270 -22 c13 -14 21 -25 18 -25 -2 0 -15 11 -28 25 -13 14 -21 25
-18 25 2 0 15 -11 28 -25z m-3340 -38 c0 -1 -26 -27 -57 -57 l-58 -55 55 58
c50 53 60 62 60 54z m3440 -52 c30 -30 52 -55 49 -55 -2 0 -29 25 -59 55 -30
30 -52 55 -49 55 2 0 29 -25 59 -55z m-3570 -78 c0 -1 -26 -27 -57 -57 l-58
-55 55 58 c50 53 60 62 60 54z m3700 -52 c30 -30 52 -55 49 -55 -2 0 -29 25
-59 55 -30 30 -52 55 -49 55 2 0 29 -25 59 -55z m-3820 -78 c0 -2 -12 -14 -27
-28 l-28 -24 24 28 c23 25 31 32 31 24z m3910 -22 c13 -14 21 -25 18 -25 -2 0
-15 11 -28 25 -13 14 -21 25 -18 25 2 0 15 -11 28 -25z m-3960 -38 c0 -2 -10
-12 -22 -23 l-23 -19 19 23 c18 21 26 27 26 19z m4005 -17 c10 -11 16 -20 13
-20 -3 0 -13 9 -23 20 -10 11 -16 20 -13 20 3 0 13 -9 23 -20z m-4045 -34 c0
-2 -8 -10 -17 -17 -16 -13 -17 -12 -4 4 13 16 21 21 21 13z m4081 -13 c13 -16
12 -17 -3 -4 -17 13 -22 21 -14 21 2 0 10 -8 17 -17z m-4131 -53 c-12 -16 -24
-30 -26 -30 -3 0 4 14 16 30 12 17 24 30 26 30 3 0 -4 -13 -16 -30z m4170 0
c12 -16 19 -30 16 -30 -2 0 -14 14 -26 30 -12 17 -19 30 -16 30 2 0 14 -13 26
-30z m-4270 -150 c-6 -11 -13 -20 -16 -20 -2 0 0 9 6 20 6 11 13 20 16 20 2 0
0 -9 -6 -20z m4370 0 c6 -11 8 -20 6 -20 -3 0 -10 9 -16 20 -6 11 -8 20 -6 20
3 0 10 -9 16 -20z m-4400 -50 c-6 -11 -13 -20 -16 -20 -2 0 0 9 6 20 6 11 13
20 16 20 2 0 0 -9 -6 -20z m4430 0 c6 -11 8 -20 6 -20 -3 0 -10 9 -16 20 -6
11 -8 20 -6 20 3 0 10 -9 16 -20z m-4502 -135 c-23 -46 -44 -83 -46 -81 -4 5
76 166 83 166 3 0 -14 -38 -37 -85z m4573 4 c22 -45 39 -83 37 -85 -2 -2 -23
35 -46 81 -23 47 -40 85 -37 85 3 0 23 -36 46 -81z m79 -174 c0 -5 -5 -3 -10
5 -5 8 -10 20 -10 25 0 6 5 3 10 -5 5 -8 10 -19 10 -25z m40 -100 c0 -5 -5 -3
-10 5 -5 8 -10 20 -10 25 0 6 5 3 10 -5 5 -8 10 -19 10 -25z m-4760 -1900 c0
-5 -5 -3 -10 5 -5 8 -10 20 -10 25 0 6 5 3 10 -5 5 -8 10 -19 10 -25z m4711 8
c-12 -20 -14 -14 -5 12 4 9 9 14 11 11 3 -2 0 -13 -6 -23z m-4642 -150 c23
-46 39 -83 36 -83 -5 0 -85 156 -85 166 0 12 7 1 49 -83z m4572 -2 c-23 -45
-43 -81 -46 -81 -3 0 14 38 37 85 23 46 44 83 46 81 2 -2 -15 -40 -37 -85z
m-4501 -131 c6 -11 8 -20 6 -20 -3 0 -10 9 -16 20 -6 11 -8 20 -6 20 3 0 10
-9 16 -20z m4430 0 c-6 -11 -13 -20 -16 -20 -2 0 0 9 6 20 6 11 13 20 16 20 2
0 0 -9 -6 -20z m-4400 -50 c6 -11 8 -20 6 -20 -3 0 -10 9 -16 20 -6 11 -8 20
-6 20 3 0 10 -9 16 -20z m4370 0 c-6 -11 -13 -20 -16 -20 -2 0 0 9 6 20 6 11
13 20 16 20 2 0 0 -9 -6 -20z m-4270 -150 c12 -16 19 -30 16 -30 -2 0 -14 14
-26 30 -12 17 -19 30 -16 30 2 0 14 -13 26 -30z m4170 0 c-12 -16 -24 -30 -26
-30 -3 0 4 14 16 30 12 17 24 30 26 30 3 0 -4 -13 -16 -30z m-4129 -57 c13
-16 12 -17 -3 -4 -10 7 -18 15 -18 17 0 8 8 3 21 -13z m4099 13 c0 -2 -8 -10
-17 -17 -16 -13 -17 -12 -4 4 13 16 21 21 21 13z m-4065 -56 c10 -11 16 -20
13 -20 -3 0 -13 9 -23 20 -10 11 -16 20 -13 20 3 0 13 -9 23 -20z m4035 17 c0
-2 -10 -12 -22 -23 l-23 -19 19 23 c18 21 26 27 26 19z m-3990 -72 c13 -14 21
-25 18 -25 -2 0 -15 11 -28 25 -13 14 -21 25 -18 25 2 0 15 -11 28 -25z m3950
22 c0 -2 -12 -14 -27 -28 l-28 -24 24 28 c23 25 31 32 31 24z m-3860 -122 c30
-30 52 -55 49 -55 -2 0 -29 25 -59 55 -30 30 -52 55 -49 55 2 0 29 -25 59 -55z
m3800 52 c0 -1 -26 -27 -57 -57 l-58 -55 55 58 c50 53 60 62 60 54z m-3670
-182 c30 -30 52 -55 49 -55 -2 0 -29 25 -59 55 -30 30 -52 55 -49 55 2 0 29
-25 59 -55z m3540 52 c0 -1 -26 -27 -57 -57 l-58 -55 55 58 c50 53 60 62 60
54z m-3440 -142 c13 -14 21 -25 18 -25 -2 0 -15 11 -28 25 -13 14 -21 25 -18
25 2 0 15 -11 28 -25z m3310 22 c0 -2 -12 -14 -27 -28 l-28 -24 24 28 c23 25
31 32 31 24z m-3255 -67 c10 -11 16 -20 13 -20 -3 0 -13 9 -23 20 -10 11 -16
20 -13 20 3 0 13 -9 23 -20z m3195 17 c0 -2 -10 -12 -22 -23 l-23 -19 19 23
c18 21 26 27 26 19z m-3149 -54 c13 -16 12 -17 -3 -4 -10 7 -18 15 -18 17 0 8
8 3 21 -13z m3099 13 c0 -2 -8 -10 -17 -17 -16 -13 -17 -12 -4 4 13 16 21 21
21 13z m-3020 -72 c0 -3 -13 4 -30 16 -16 12 -30 24 -30 26 0 3 14 -4 30 -16
17 -12 30 -24 30 -26z m2980 42 c0 -3 -15 -14 -32 -26 l-33 -22 30 26 c31 27
35 29 35 22z m-2840 -132 c0 -2 -9 0 -20 6 -11 6 -20 13 -20 16 0 2 9 0 20 -6
11 -6 20 -13 20 -16z m2680 21 c0 -2 -10 -9 -22 -15 -22 -11 -22 -10 -4 4 21
17 26 19 26 11z m-2630 -51 c0 -2 -9 0 -20 6 -11 6 -20 13 -20 16 0 2 9 0 20
-6 11 -6 20 -13 20 -16z m2580 21 c0 -2 -10 -9 -22 -15 -22 -11 -22 -10 -4 4
21 17 26 19 26 11z m-2384 -123 c-5 -4 -166 76 -166 83 0 3 38 -14 85 -37 46
-23 83 -44 81 -46z m2314 83 c0 -6 -157 -85 -167 -84 -6 0 154 86 165 88 1 1
2 -1 2 -4z m-2230 -115 c8 -5 11 -10 5 -10 -5 0 -17 5 -25 10 -8 5 -10 10 -5
10 6 0 17 -5 25 -10z m2000 0 c-8 -5 -19 -10 -25 -10 -5 0 -3 5 5 10 8 5 20
10 25 10 6 0 3 -5 -5 -10z m-1900 -40 c8 -5 11 -10 5 -10 -5 0 -17 5 -25 10
-8 5 -10 10 -5 10 6 0 17 -5 25 -10z"/>
<path d="M2390 4953 c-889 -67 -1676 -642 -2014 -1471 -325 -794 -190 -1703
352 -2371 321 -395 770 -683 1257 -806 217 -54 342 -69 590 -69 248 -1 370 14
590 69 677 171 1247 638 1551 1270 104 216 173 442 211 685 24 161 24 511 0
670 -91 586 -379 1099 -829 1478 -465 392 -1092 592 -1708 545z m405 -273
c656 -74 1243 -450 1591 -1020 275 -452 369 -998 263 -1530 -113 -567 -480
-1085 -989 -1396 -452 -275 -998 -369 -1530 -263 -567 113 -1085 480 -1396
989 -156 258 -260 562 -294 865 -22 200 -10 457 31 665 113 567 480 1085 989
1396 251 153 562 260 850 293 107 12 379 13 485 1z"/>
</g>
</svg>
